<?xml version="1.0" encoding="UTF-8" standalone="no"?>
<!DOCTYPE svg PUBLIC "-//W3C//DTD SVG 1.1//EN"
 "http://www.w3.org/Graphics/SVG/1.1/DTD/svg11.dtd">
<!-- Generated by graphviz version 12.2.1 (20241206.2353)
 -->
<!-- Title: NavigationGraph Pages: 1 -->
<svg width="296pt" height="112pt"
 viewBox="0.00 0.00 296.00 111.79" xmlns="http://www.w3.org/2000/svg" xmlns:xlink="http://www.w3.org/1999/xlink">
<g id="graph0" class="graph" transform="scale(1 1) rotate(0) translate(4 107.79)">
<title>NavigationGraph</title>
<polygon fill="white" stroke="none" points="-4,4 -4,-107.79 292,-107.79 292,4 -4,4"/>
<!-- b -->
<g id="node1" class="node">
<title>b</title>
<path fill="#5594f1" stroke="black" d="M276,-36C276,-36 246,-36 246,-36 240,-36 234,-30 234,-24 234,-24 234,-12 234,-12 234,-6 240,0 246,0 246,0 276,0 276,0 282,0 288,-6 288,-12 288,-12 288,-24 288,-24 288,-30 282,-36 276,-36"/>
<text text-anchor="middle" x="261" y="-14.45" font-family="Inter" font-size="14.00">b</text>
</g>
<!-- c -->
<g id="node2" class="node">
<title>c</title>
<path fill="#5594f1" stroke="black" d="M276,-103C276,-103 246,-103 246,-103 240,-103 234,-97 234,-91 234,-91 234,-79 234,-79 234,-73 240,-67 246,-67 246,-67 276,-67 276,-67 282,-67 288,-73 288,-79 288,-79 288,-91 288,-91 288,-97 282,-103 276,-103"/>
<text text-anchor="middle" x="261" y="-81.45" font-family="Inter" font-size="14.00">c</text>
</g>
<!-- a -->
<g id="node3" class="node">
<title>a</title>
<path fill="#90ee90" stroke="black" d="M42,-76C42,-76 12,-76 12,-76 6,-76 0,-70 0,-64 0,-64 0,-52 0,-52 0,-46 6,-40 12,-40 12,-40 42,-40 42,-40 48,-40 54,-46 54,-52 54,-52 54,-64 54,-64 54,-70 48,-76 42,-76"/>
<text text-anchor="middle" x="27" y="-54.45" font-family="Inter" font-size="14.00">a</text>
</g>
<!-- c&#45;&gt;a -->
<g id="edge3" class="edge">
<title>c&#45;&gt;a</title>
<path fill="none" stroke="#0047ab" d="M238.03,-66.6C231.36,-62.08 223.74,-57.86 216,-55.5 165.62,-40.18 104.09,-45.16 65.46,-50.94"/>
<polygon fill="#0047ab" stroke="#0047ab" points="65.06,-47.46 55.74,-52.5 66.16,-54.37 65.06,-47.46"/>
<text text-anchor="middle" x="144" y="-58.7" font-family="Times,serif" font-size="14.00">anEventTypeOfSomeKind</text>
</g>
<!-- a&#45;&gt;b -->
<g id="edge1" class="edge">
<title>a&#45;&gt;b</title>
<path fill="none" stroke="#0047ab" d="M46.6,-39.79C53.92,-33.78 62.78,-27.79 72,-24.5 121.62,-6.8 183.35,-8.83 222.23,-12.75"/>
<polygon fill="#0047ab" stroke="#0047ab" points="221.7,-16.21 232.02,-13.84 222.47,-9.25 221.7,-16.21"/>
<text text-anchor="middle" x="144" y="-27.7" font-family="Times,serif" font-size="14.00">someEvent</text>
</g>
<!-- a&#45;&gt;c -->
<g id="edge2" class="edge">
<title>a&#45;&gt;c</title>
<path fill="none" stroke="#0047ab" d="M54.05,-70.35C59.85,-72.62 66.04,-74.68 72,-76 123.32,-87.37 184.37,-88.01 222.67,-86.91"/>
<polygon fill="#0047ab" stroke="#0047ab" points="222.4,-90.42 232.27,-86.57 222.15,-83.42 222.4,-90.42"/>
<text text-anchor="middle" x="144" y="-90.49" font-family="Times,serif" font-size="14.00">someOtherEvent</text>
</g>
</g>
</svg>
